<svg xmlns="http://www.w3.org/2000/svg" x="0px" y="0px" width="50" height="50" viewBox="0 0 50 50">
<path d="M 9 0 C 7.355469 0 6 1.355469 6 3 L 6 50 L 44 50 L 44 3 C 44 1.355469 42.644531 0 41 0 Z M 9 2 L 41 2 C 41.554688 2 42 2.445313 42 3 L 42 48 L 38 48 L 38 36 L 27 36 L 27 48 L 8 48 L 8 3 C 8 2.445313 8.445313 2 9 2 Z M 12 6 L 12 14 L 23 14 L 23 6 Z M 27 6 L 27 14 L 38 14 L 38 6 Z M 14 8 L 21 8 L 21 12 L 14 12 Z M 29 8 L 36 8 L 36 12 L 29 12 Z M 12 16 L 12 24 L 23 24 L 23 16 Z M 27 16 L 27 24 L 38 24 L 38 16 Z M 14 18 L 21 18 L 21 22 L 14 22 Z M 29 18 L 36 18 L 36 22 L 29 22 Z M 12 26 L 12 34 L 23 34 L 23 26 Z M 27 26 L 27 34 L 38 34 L 38 26 Z M 14 28 L 21 28 L 21 32 L 14 32 Z M 29 28 L 36 28 L 36 32 L 29 32 Z M 12 36 L 12 44 L 23 44 L 23 36 Z M 14 38 L 21 38 L 21 42 L 14 42 Z M 29 38 L 36 38 L 36 48 L 29 48 Z"></path>
</svg>