<?xml version="1.0" encoding="iso-8859-1"?><!-- Generator: Adobe Illustrator 19.1.1, SVG Export Plug-In . SVG Version: 6.00 Build 0)  --><svg xmlns="http://www.w3.org/2000/svg" xmlns:xlink="http://www.w3.org/1999/xlink" viewBox="0 0 50 50" width="50px" height="50px"><g><circle fill="none" stroke="#000000" stroke-width="2" stroke-miterlimit="10" cx="13" cy="39" r="5"/></g><g><circle fill="none" stroke="#000000" stroke-width="2" stroke-miterlimit="10" cx="40" cy="39" r="5"/></g><path fill="none" stroke="#000000" stroke-width="2" stroke-miterlimit="10" d="M45,39h2c1,0,2-1,2-2c0,0,0-7.9,0-9.6s-1.4-3.7-1.4-3.7l-4.1-5.5c-0.8-1-2.1-2.2-3.5-2.2h-8c-1,0-2,1-2,2v21h5 M49,28c0,0-9,0-10,0s-2-1-2-2c0-0.6,0-8.5,0-10"/><path fill="none" stroke="#000000" stroke-width="2" stroke-miterlimit="10" d="M18,39h12V10.9c0-1-0.9-1.9-1.9-1.9H2.8C1.8,9,1,9.8,1,10.8V37c0,1.1,0.9,2,2,2h5"/><g ><path d="M15,32C9.5,32,5,27.5,5,22s4.5-10,10-10s10,4.5,10,10S20.5,32,15,32z M15,14c-4.4,0-8,3.6-8,8s3.6,8,8,8s8-3.6,8-8S19.4,14,15,14z M16,22.5V16h-2v5.5l-3.6,2.7l1.2,1.6L16,22.5z"/></g></svg>