<?xml version="1.0" encoding="iso-8859-1"?><!-- Generator: Adobe Illustrator 21.1.0, SVG Export Plug-In . SVG Version: 6.00 Build 0)  --><svg xmlns="http://www.w3.org/2000/svg" xmlns:xlink="http://www.w3.org/1999/xlink" viewBox="0 0 50 50" width="50px" height="50px"><path style="fill:none;stroke:#000000;stroke-width:2;stroke-linejoin:round;stroke-miterlimit:10;" d="M38,41H2V19C2,13.477,6.477,9,12,9h36v22C48,36.523,43.523,41,38,41z"/><path d="M15.785,24.21l-1.227-0.325c-1.557-0.399-2.163-0.886-2.163-1.738c0-1.118,0.968-1.84,2.465-1.84c1.393,0,2.34,0.677,2.532,1.812l0.017,0.104h1.708l-0.009-0.133c-0.127-1.976-1.854-3.356-4.2-3.356c-2.551,0-4.265,1.391-4.265,3.461c0,1.72,0.965,2.731,3.13,3.279l1.503,0.39c1.557,0.391,2.252,0.982,2.252,1.917c0,1.094-1.098,1.889-2.611,1.889c-1.611,0-2.718-0.727-2.888-1.898l-0.015-0.107h-1.72l0.011,0.134c0.16,2.097,1.917,3.452,4.476,3.452c2.734,0,4.5-1.432,4.5-3.648C19.279,25.815,18.266,24.832,15.785,24.21z"/><polygon points="30.225,19 30.225,20.72 34,20.72 34,31 35.828,31 35.828,20.72 39.513,20.72 39.513,19 "/><path d="M26.517,19h-1.624l-4.362,11.832L20.469,31h1.807l1.181-3.363h4.496L29.134,31h1.807L26.517,19z M25.705,21.214L27.385,26h-3.359L25.705,21.214z"/></svg>