<?xml version="1.0" encoding="utf-8"?><!-- Generator: Adobe Illustrator 18.1.1, SVG Export Plug-In . SVG Version: 6.00 Build 0)  --><svg xmlns="http://www.w3.org/2000/svg" xmlns:xlink="http://www.w3.org/1999/xlink" viewBox="0 0 50 50" width="50px" height="50px"><g><path fill="none" stroke="#000000" stroke-width="2" stroke-linecap="round" stroke-linejoin="round" stroke-miterlimit="10" d="M33.4,23l1.6-1.6c3.5,2.1,7,2.5,9.7-0.2c2.5-2.5,5.2-8.4,4-12l-5.3,5.3c-0.7,0.7-1.9,0.7-2.7,0l-5.3-5.3c-0.7-0.7-0.7-1.9,0-2.7l5.3-5.3c-3.5-1.2-9.5,1.5-12,4c-2.7,2.7-2.4,6.3-0.2,9.7l-2.8,2.8"/><path fill="none" stroke="#000000" stroke-width="2" stroke-linecap="round" stroke-linejoin="round" stroke-miterlimit="10" d="M17.8,25.8l-5.1,5.1c-0.8-0.2-1.6-0.3-2.4-0.3c-5.1,0-9.2,4.1-9.2,9.2c0,5.1,4.1,9.2,9.2,9.2c5.1,0,9.2-4.1,9.2-9.2c0-0.9-0.1-1.7-0.4-2.5l3.8-3.8 M13.8,43.2L9,44.5L5.5,41l1.3-4.7l4.7-1.3l3.5,3.5L13.8,43.2z"/></g><polyline fill="none" stroke="#000000" stroke-width="2" stroke-linejoin="round" stroke-miterlimit="10" points="25,22.5 10.4,7.9 10.8,5.2 3.5,1 1,3.5 5.2,10.8 7.9,10.4 22.5,25 "/><path fill="none" stroke="#000000" stroke-width="2" stroke-linejoin="round" stroke-miterlimit="10" d="M47.5,40L35.3,27.8c-0.9-0.9-2.2-1.2-3.4-1l-2.3-2.3c0.6-0.7,0.6-1.8-0.1-2.5l-0.7-0.7c-0.7-0.7-1.9-0.7-2.6,0l-4.9,4.9c-0.7,0.7-0.7,1.9,0,2.6l0.7,0.7c0.7,0.7,1.8,0.7,2.5,0.1l2.3,2.3c-0.3,1.2,0.1,2.5,1,3.4L40,47.5c2.1,2.1,5.4,2.1,7.5,0C49.5,45.4,49.5,42,47.5,40z"/><line fill="none" stroke="#000000" stroke-width="2" stroke-linejoin="round" stroke-miterlimit="10" x1="31" y1="31" x2="43" y2="43"/></svg>