<svg xmlns="http://www.w3.org/2000/svg"  viewBox="0 0 512 512" width="50px" height="50px"><path d="M 137.5 68 C 111.033 68 89 89.419719 89 115.88672 L 89 165 L 77.425781 165 C 50.957781 165 29 186.67753 29 213.14453 L 29 396.11328 C 29 422.58028 50.957781 444 77.425781 444 L 434.57422 444 C 461.04222 444 483 422.58028 483 396.11328 L 483 213.14453 C 483 186.67753 461.04222 165 434.57422 165 L 422 165 L 422 115.88672 A 47.533 47.533 0 0 0 374.5 68 L 137.5 68 z M 137.5 84 L 374.5 84 A 31.516 31.516 0 0 1 406 115.88672 L 406 165 L 378 165 L 378 149.30078 C 378 144.88178 374.75003 141 370.33203 141 L 327.66797 141 C 323.24997 141 320 144.87778 320 149.30078 L 320 165 L 316 165 L 316 149.30078 C 316 144.88178 312.75003 141 308.33203 141 L 265.66797 141 C 261.24897 141 258 144.87778 258 149.30078 L 258 165 L 254 165 L 254 149.30078 C 254 144.88178 250.75103 141 246.33203 141 L 203.66797 141 C 199.24897 141 196 144.87778 196 149.30078 L 196 165 L 192 165 L 192 149.30078 C 192 144.88178 188.75103 141 184.33203 141 L 141.66797 141 C 137.24897 141 134 144.87778 134 149.30078 L 134 165 L 105 165 L 105 115.88672 C 105 98.241719 119.855 84 137.5 84 z M 150 157 L 176 157 L 176 165 L 150 165 L 150 157 z M 212 157 L 238 157 L 238 165 L 212 165 L 212 157 z M 274 157 L 300 157 L 300 165 L 274 165 L 274 157 z M 336 157 L 362 157 L 362 165 L 336 165 L 336 157 z M 77 181 L 434 181 A 32 32 0 0 1 466 213 L 466 396 A 32 32 0 0 1 434 428 L 77 428 A 32 32 0 0 1 45 396 L 45 213 A 32 32 0 0 1 77 181 z M 117 239.76758 A 64.862 64.862 0 1 0 181.86133 304.62891 A 64.935 64.935 0 0 0 117 239.76758 z M 396 239.76758 A 64.862 64.862 0 1 0 460.86133 304.62891 A 64.935 64.935 0 0 0 396 239.76758 z M 114.96875 255.80859 A 48.862 48.862 0 0 1 165.86133 304.62891 A 48.917 48.917 0 0 1 117 353.49023 A 48.862 48.862 0 0 1 114.96875 255.80859 z M 393.96875 255.80859 A 48.862 48.862 0 0 1 444.86133 304.62891 A 48.917 48.917 0 0 1 396 353.49023 A 48.862 48.862 0 0 1 393.96875 255.80859 z M 197 261 A 8 8 0 0 0 189 269 L 189 340 A 8 8 0 0 0 197 348 L 314 348 A 8 8 0 0 0 322 340 L 322 269 A 8 8 0 0 0 314 261 L 197 261 z M 117 266.7207 A 37.909 37.909 0 1 0 154.9082 304.62891 A 37.952 37.952 0 0 0 117 266.7207 z M 396 266.7207 A 37.909 37.909 0 1 0 433.9082 304.62891 A 37.952 37.952 0 0 0 396 266.7207 z M 205 277 L 307 277 L 307 332 L 205 332 L 205 277 z M 116.08984 282.73828 A 21.909 21.909 0 0 1 138.9082 304.62891 A 21.934 21.934 0 0 1 117 326.53711 A 21.909 21.909 0 0 1 116.08984 282.73828 z M 395.08984 282.73828 A 21.909 21.909 0 0 1 417.9082 304.62891 A 21.934 21.934 0 0 1 396 326.53711 A 21.909 21.909 0 0 1 395.08984 282.73828 z"/></svg>