<svg xmlns="http://www.w3.org/2000/svg" x="0px" y="0px" width="50" height="50" viewBox="0 0 50 50">
<path d="M 0 9 L 0 41 L 50 41 L 50 9 Z M 2 11 L 48 11 L 48 39 L 2 39 Z M 24.90625 16.96875 C 24.863281 16.976563 24.820313 16.988281 24.78125 17 C 24.316406 17.105469 23.988281 17.523438 24 18 L 24 26 C 23.996094 26.359375 24.183594 26.695313 24.496094 26.878906 C 24.808594 27.058594 25.191406 27.058594 25.503906 26.878906 C 25.816406 26.695313 26.003906 26.359375 26 26 L 26 18 C 26.011719 17.710938 25.894531 17.433594 25.6875 17.238281 C 25.476563 17.039063 25.191406 16.941406 24.90625 16.96875 Z M 21 18.21875 C 20.945313 18.226563 20.894531 18.234375 20.84375 18.25 C 20.695313 18.28125 20.558594 18.34375 20.4375 18.4375 C 18.367188 19.882813 17 22.289063 17 25 C 17 29.40625 20.59375 33 25 33 C 29.40625 33 33 29.40625 33 25 C 33 22.289063 31.632813 19.882813 29.5625 18.4375 C 29.105469 18.125 28.484375 18.246094 28.171875 18.703125 C 27.859375 19.160156 27.980469 19.78125 28.4375 20.09375 C 29.992188 21.179688 31 22.953125 31 25 C 31 28.324219 28.324219 31 25 31 C 21.675781 31 19 28.324219 19 25 C 19 22.953125 20.007813 21.179688 21.5625 20.09375 C 21.976563 19.867188 22.179688 19.382813 22.042969 18.929688 C 21.90625 18.476563 21.472656 18.179688 21 18.21875 Z M 10.8125 43 C 10.261719 43.050781 9.855469 43.542969 9.90625 44.09375 C 9.957031 44.644531 10.449219 45.050781 11 45 L 39 45 C 39.359375 45.003906 39.695313 44.816406 39.878906 44.503906 C 40.058594 44.191406 40.058594 43.808594 39.878906 43.496094 C 39.695313 43.183594 39.359375 42.996094 39 43 L 11 43 C 10.96875 43 10.9375 43 10.90625 43 C 10.875 43 10.84375 43 10.8125 43 Z"></path>
</svg>