<?xml version="1.0" encoding="utf-8"?><!-- Generator: Adobe Illustrator 17.0.0, SVG Export Plug-In . SVG Version: 6.00 Build 0)  --><!DOCTYPE svg PUBLIC "-//W3C//DTD SVG 1.1//EN" "http://www.w3.org/Graphics/SVG/1.1/DTD/svg11.dtd"><svg xmlns="http://www.w3.org/2000/svg" xmlns:xlink="http://www.w3.org/1999/xlink" viewBox="0 0 50 50" width="50px" height="50px"><circle cx="44" cy="18" r="2"/><circle cx="44" cy="25" r="2"/><circle cx="44" cy="32" r="2"/><path fill="none" stroke="#000000" stroke-width="2" stroke-linecap="round" stroke-miterlimit="10" d="M39,41v2c0,0.552,0.448,1,1,1s2.448,0,3,0s1-0.448,1-1v-2"/><path fill="none" stroke="#000000" stroke-width="2" stroke-linecap="round" stroke-miterlimit="10" d="M6,41v2c0,0.552,0.448,1,1,1s2.448,0,3,0s1-0.448,1-1v-2"/><path fill="none" stroke="#000000" stroke-width="2" stroke-linecap="round" stroke-miterlimit="10" d="M47,9H3c-1.105,0-2,0.896-2,2v28c0,1.104,0.895,2,2,2h44c1.104,0,2-0.896,2-2V11C49,9.896,48.104,9,47,9z"/><rect x="6" y="14" fill="none" stroke="#000000" stroke-width="2" stroke-linecap="round" stroke-miterlimit="10" width="33" height="22"/><path fill="none" stroke="#000000" stroke-width="2" stroke-linecap="round" stroke-miterlimit="10" d="M11,23c0,0,3.937-2,7.229-2s4.637,2,7.886,2S34,21,34,21"/><path fill="none" stroke="#000000" stroke-width="2" stroke-linecap="round" stroke-miterlimit="10" d="M11,29c0,0,3.937-2,7.229-2s4.637,2,7.886,2S34,27,34,27"/></svg>