<svg xmlns="http://www.w3.org/2000/svg"  viewBox="0 0 512 512" width="64px" height="64px"><path d="M 97 0 A 7.5 7.5 0 0 0 89.5 7.5 L 89.5 60 L 81 60 A 7.5 7.5 0 0 0 73.5 67.5 L 73.5 167.5 A 27.54 27.54 0 0 0 101 195 L 129.5 195 L 129.5 371.5 A 67 67 0 0 0 263.5 371.5 L 263.5 140.5 A 52.06 52.06 0 0 1 315.5 88.5 L 341.5 88.5 A 52.06 52.06 0 0 1 393.5 140.5 L 393.5 377 L 371 377 A 7.5 7.5 0 0 0 363.5 384.5 L 363.5 464.5 A 7.5 7.5 0 0 0 371 472 L 378.5 472 L 378.5 504.5 A 7.5 7.5 0 0 0 386 512 L 416 512 A 7.5 7.5 0 0 0 423.5 504.5 L 423.5 472 L 431 472 A 7.5 7.5 0 0 0 438.5 464.5 L 438.5 384.5 A 7.5 7.5 0 0 0 431 377 L 408.5 377 L 408.5 140.5 A 67.08 67.08 0 0 0 341.5 73.5 L 315.5 73.5 A 67.08 67.08 0 0 0 248.5 140.5 L 248.5 371.5 A 52 52 0 0 1 144.5 371.5 L 144.5 195 L 173 195 A 27.54 27.54 0 0 0 200.5 167.5 L 200.5 67.5 A 7.5 7.5 0 0 0 193 60 L 184.5 60 L 184.5 7.5 A 7.5 7.5 0 0 0 177 0 L 97 0 z M 104.5 15 L 169.5 15 L 169.5 60 L 104.5 60 L 104.5 15 z M 122 22.5 A 7.5 7.5 0 0 0 114.5 30 L 114.5 45 A 7.5 7.5 0 0 0 129.5 45 L 129.5 30 A 7.5 7.5 0 0 0 122 22.5 z M 152 22.5 A 7.5 7.5 0 0 0 144.5 30 L 144.5 45 A 7.5 7.5 0 0 0 159.5 45 L 159.5 30 A 7.5 7.5 0 0 0 152 22.5 z M 88.5 75 L 185.5 75 L 185.5 167.5 A 12.52 12.52 0 0 1 173 180 L 101 180 A 12.52 12.52 0 0 1 88.5 167.5 L 88.5 75 z M 378.5 392 L 423.5 392 L 423.5 457 L 378.5 457 L 378.5 392 z M 393.5 472 L 408.5 472 L 408.5 497 L 393.5 497 L 393.5 472 z"/></svg>